# xmcd CD database file
#
# Track frame offsets:
#	150
#	12624
#	31585
#	47532
#	65585
#	80358
#	96866
#	111208
#	129582
#	147884
#	160333
#	172806
#	188062
#	205108
#
# Disc length: 2901 seconds
#
# Revision: 0
# Processed by: cddbd v1.5.2PL0 Copyright (c) Steve Scherf et al.
# Submitted via: CD2WAV32(JP) R3.22
#
DISCID=b30b530e
DTITLE=美空ひばり - 美空ひばり大全集 ～共に歩んだ20年～
DYEAR=2012
DGENRE=Folk
TTITLE0=素適なランデブー
TTITLE1=娘船頭さん
TTITLE2=怒涛の男
TTITLE3=長崎の蝶々さん
TTITLE4=雪之丞変化
TTITLE5=江戸の闇太郎
TTITLE6=菊五郎格子
TTITLE7=花笠道中
TTITLE8=追分道中
TTITLE9=べらんめえ芸者
TTITLE10=車屋さん
TTITLE11=裸念仏ぁ岩の上
TTITLE12=恋は不思議なもの
TTITLE13=ひばりの渡り鳥だよ
EXTD=
EXTT0=
EXTT1=
EXTT2=
EXTT3=
EXTT4=
EXTT5=
EXTT6=
EXTT7=
EXTT8=
EXTT9=
EXTT10=
EXTT11=
EXTT12=
EXTT13=
PLAYORDER=
